<svg xmlns="http://www.w3.org/2000/svg" width="126.276" height="106.405" viewBox="0 0 126.276 106.405">
  <g id="Bin" transform="translate(-120.024 -272.147)">
    <g id="Group_1197" data-name="Group 1197">
      <g id="Group_1191" data-name="Group 1191">
        <path id="Path_4535" data-name="Path 4535" d="M217.7,314.208h-24.59a3.236,3.236,0,0,1,0-6.471H217.7a3.236,3.236,0,0,1,0,6.471Z" fill="#62bb46"/>
      </g>
      <g id="Group_1192" data-name="Group 1192">
        <path id="Path_4536" data-name="Path 4536" d="M206.7,345.269H182.112a3.236,3.236,0,1,1,0-6.471H206.7a3.236,3.236,0,1,1,0,6.471Z" fill="#62bb46"/>
      </g>
      <g id="Group_1193" data-name="Group 1193">
        <path id="Path_4537" data-name="Path 4537" d="M211.231,329.738H186.642a3.235,3.235,0,1,1,0-6.47h24.589a3.235,3.235,0,1,1,0,6.47Z" fill="#62bb46"/>
      </g>
      <g id="Group_1194" data-name="Group 1194">
        <path id="Path_4538" data-name="Path 4538" d="M242.938,314.208h-6.47a3.236,3.236,0,1,1,0-6.471h6.47a3.236,3.236,0,1,1,0,6.471Z" fill="#62bb46"/>
      </g>
      <g id="Group_1195" data-name="Group 1195">
        <path id="Path_4539" data-name="Path 4539" d="M242.938,329.865H220.29a3.362,3.362,0,0,1,0-6.724h22.648a3.362,3.362,0,0,1,0,6.724Z" fill="#62bb46"/>
      </g>
      <path id="Path_4540" data-name="Path 4540" d="M195.962,378.552H136.979a1.751,1.751,0,0,1-1.744-1.583l-9.051-94.114,3.542-2.429h71.893l3.547,2.429Z" fill="#92dd7a"/>
      <path id="Path_4541" data-name="Path 4541" d="M210.584,276.988v4.135a1.717,1.717,0,0,1-1.7,1.733H121.723a1.718,1.718,0,0,1-1.7-1.733v-4.135a4.8,4.8,0,0,1,4.75-4.841h81.06A4.8,4.8,0,0,1,210.584,276.988Z" fill="#92dd7a"/>
      <path id="Path_4542" data-name="Path 4542" d="M137.426,272.347a4.894,4.894,0,0,0-4.893,4.894v5.615h-10.81a1.7,1.7,0,0,1-1.7-1.7V277.1a4.751,4.751,0,0,1,4.75-4.75Z" fill="#44a321"/>
      <path id="Path_4543" data-name="Path 4543" d="M204.686,287.859H140.619a1.751,1.751,0,0,0-1.743,1.918l8.539,88.775H136.977a1.752,1.752,0,0,1-1.743-1.584l-9.051-94.113h78.983Z" fill="#62bb46"/>
      <circle id="Ellipse_180" data-name="Ellipse 180" cx="13.759" cy="13.759" r="13.759" transform="translate(182.189 351.034)" fill="#44a321"/>
      <circle id="Ellipse_181" data-name="Ellipse 181" cx="3.235" cy="3.235" r="3.235" transform="translate(223.526 307.737)" fill="#62bb46"/>
      <g id="Group_1196" data-name="Group 1196">
        <path id="Path_4544" data-name="Path 4544" d="M231.291,345.269H224.82a3.236,3.236,0,1,1,0-6.471h6.471a3.236,3.236,0,0,1,0,6.471Z" fill="#62bb46"/>
      </g>
      <circle id="Ellipse_182" data-name="Ellipse 182" cx="3.235" cy="3.235" r="3.235" transform="translate(211.878 338.798)" fill="#62bb46"/>
    </g>
    <g id="Group_1210" data-name="Group 1210">
      <circle id="Ellipse_183" data-name="Ellipse 183" cx="21.153" cy="21.153" r="21.153" transform="translate(147.831 305.596)" fill="#62bb46"/>
      <g id="Group_1209" data-name="Group 1209">
        <g id="Group_1198" data-name="Group 1198">
          <path id="Path_4545" data-name="Path 4545" d="M160.6,334.036a.58.58,0,0,1-.508-.3l-1.935-3.483a.581.581,0,1,1,1.015-.564l1.935,3.483a.581.581,0,0,1-.225.79A.59.59,0,0,1,160.6,334.036Z" fill="#fff"/>
        </g>
        <g id="Group_1199" data-name="Group 1199">
          <path id="Path_4546" data-name="Path 4546" d="M166.409,334.036a.579.579,0,0,1-.508-.3l-1.936-3.483a.581.581,0,1,1,1.015-.564l1.935,3.483a.58.58,0,0,1-.506.863Z" fill="#fff"/>
        </g>
        <g id="Group_1200" data-name="Group 1200">
          <path id="Path_4547" data-name="Path 4547" d="M172.214,334.036a.58.58,0,0,1-.508-.3l-1.935-3.483a.581.581,0,1,1,1.015-.564l1.935,3.483a.581.581,0,0,1-.507.863Z" fill="#fff"/>
        </g>
        <g id="Group_1201" data-name="Group 1201">
          <path id="Path_4548" data-name="Path 4548" d="M178.019,334.036a.58.58,0,0,1-.508-.3l-1.935-3.483a.581.581,0,1,1,1.015-.564l1.935,3.483a.581.581,0,0,1-.225.79A.587.587,0,0,1,178.019,334.036Z" fill="#fff"/>
        </g>
        <g id="Group_1202" data-name="Group 1202">
          <path id="Path_4549" data-name="Path 4549" d="M163.7,327.843a.582.582,0,0,1-.508-.3l-1.935-3.484a.581.581,0,0,1,1.015-.564l1.935,3.484a.58.58,0,0,1-.507.862Z" fill="#fff"/>
        </g>
        <g id="Group_1203" data-name="Group 1203">
          <path id="Path_4550" data-name="Path 4550" d="M169.505,327.843a.582.582,0,0,1-.508-.3l-1.935-3.484a.58.58,0,1,1,1.014-.564l1.936,3.484a.581.581,0,0,1-.226.789A.572.572,0,0,1,169.505,327.843Z" fill="#fff"/>
        </g>
        <g id="Group_1204" data-name="Group 1204">
          <path id="Path_4551" data-name="Path 4551" d="M169.5,343.324a.58.58,0,0,1-.58-.58v-2.739a2.3,2.3,0,0,0-.289-1.114l-1.573-2.832a.58.58,0,1,1,1.014-.564l1.574,2.832a3.471,3.471,0,0,1,.435,1.678v2.739A.581.581,0,0,1,169.5,343.324Z" fill="#fff"/>
        </g>
        <g id="Group_1205" data-name="Group 1205">
          <path id="Path_4552" data-name="Path 4552" d="M175.31,327.843a.582.582,0,0,1-.508-.3l-1.935-3.484a.581.581,0,0,1,1.015-.564l1.935,3.484a.58.58,0,0,1-.507.862Z" fill="#fff"/>
        </g>
        <g id="Group_1206" data-name="Group 1206">
          <path id="Path_4553" data-name="Path 4553" d="M167.183,321.651a.579.579,0,0,1-.508-.3l-1.936-3.483a.581.581,0,1,1,1.015-.564l1.935,3.483a.58.58,0,0,1-.506.863Z" fill="#fff"/>
        </g>
        <g id="Group_1207" data-name="Group 1207">
          <path id="Path_4554" data-name="Path 4554" d="M172.988,321.651a.58.58,0,0,1-.508-.3l-1.935-3.483a.581.581,0,1,1,1.015-.564l1.935,3.483a.581.581,0,0,1-.507.863Z" fill="#fff"/>
        </g>
        <g id="Group_1208" data-name="Group 1208">
          <path id="Path_4555" data-name="Path 4555" d="M170.279,315.458a.58.58,0,0,1-.508-.3l-1.935-3.483a.58.58,0,1,1,1.014-.564l1.936,3.483a.581.581,0,0,1-.226.789A.572.572,0,0,1,170.279,315.458Z" fill="#fff"/>
        </g>
      </g>
    </g>
  </g>
</svg>
