<svg xmlns="http://www.w3.org/2000/svg" width="32.022" height="28.495" viewBox="0 0 32.022 28.495">
  <g id="Camero" transform="translate(-7700.473 -198.662)">
    <g id="Group_879" data-name="Group 879">
      <path id="Path_3173" data-name="Path 3173" d="M7716.516,207.881a6.3,6.3,0,1,0,6.3,6.3A6.327,6.327,0,0,0,7716.516,207.881Zm2.939,7.314a.961.961,0,0,1-.979-.98,1.965,1.965,0,0,0-1.96-1.959.979.979,0,0,1,0-1.959,3.93,3.93,0,0,1,3.919,3.918A.983.983,0,0,1,7719.455,215.2Z" fill="#666" stroke="#fff" stroke-miterlimit="10" stroke-width="1"/>
      <path id="Path_3174" data-name="Path 3174" d="M7726.019,203.6h-1.764l-1.6-3.2a2.214,2.214,0,0,0-1.991-1.241h-8.327a2.215,2.215,0,0,0-1.992,1.241l-1.6,3.2h-1.764a5.993,5.993,0,0,0-6.008,6.008v11.037a5.993,5.993,0,0,0,6.008,6.009h19a5.993,5.993,0,0,0,6.009-6.009V209.611A5.945,5.945,0,0,0,7726.019,203.6Zm-9.5,18.874a8.278,8.278,0,1,1,8.262-8.262A8.271,8.271,0,0,1,7716.516,222.477Z" fill="#666" stroke="#fff" stroke-miterlimit="10" stroke-width="1"/>
    </g>
  </g>
</svg>
