<svg xmlns="http://www.w3.org/2000/svg" xmlns:xlink="http://www.w3.org/1999/xlink" width="99.98" height="113.812" viewBox="0 0 99.98 113.812">
  <defs>
    <linearGradient id="linear-gradient" y1="0.5" x2="1" y2="0.5" gradientUnits="objectBoundingBox">
      <stop offset="0" stop-color="#8cc63f"/>
      <stop offset="1" stop-color="#39b54a"/>
    </linearGradient>
    <linearGradient id="linear-gradient-7" x1="0" y1="0.5" x2="1" y2="0.5" xlink:href="#linear-gradient"/>
  </defs>
  <g id="Category" transform="translate(-6578.362 -254.507)" opacity="0.5">
    <path id="Path_3318" data-name="Path 3318" d="M6626.392,280.928v8.129a2.171,2.171,0,0,1-2.287,2.032h-2.287a2.175,2.175,0,0,0-2.287,2.033v6.1h18.3v-6.1a2.174,2.174,0,0,0-2.287-2.033h-2.287a2.171,2.171,0,0,1-2.287-2.032v-8.129Z" fill="url(#linear-gradient)"/>
    <path id="Path_3319" data-name="Path 3319" d="M6674.422,305.316a2.174,2.174,0,0,0-2.287-2.033H6580.65a2.176,2.176,0,0,0-2.288,2.033v6.1h96.06Z" fill="url(#linear-gradient)"/>
    <path id="Path_3320" data-name="Path 3320" d="M6587.511,295.154h18.3v4.065h-18.3Z" fill="url(#linear-gradient)"/>
    <path id="Path_3321" data-name="Path 3321" d="M6603.521,268.733v6.949a10.208,10.208,0,0,1,6.861,9.31v14.227h4.575v-6.1c0-3.366,3.073-6.094,6.861-6.1v-8.13a2.171,2.171,0,0,1,2.287-2.032h9.149a2.171,2.171,0,0,1,2.287,2.032v8.13c3.788,0,6.857,2.731,6.861,6.1v6.1h2.919l3.943-9.1V254.507h-9.149v16.259a2.171,2.171,0,0,1-2.287,2.032H6612.67a2.171,2.171,0,0,1-2.288-2.032V254.507h-9.148V266.7A2.171,2.171,0,0,1,6603.521,268.733Z" fill="url(#linear-gradient)"/>
    <path id="Path_3322" data-name="Path 3322" d="M6589.185,362.656c.268,3.186,3.25,5.653,6.846,5.663h60.723c3.6-.011,6.576-2.477,6.844-5.663l3.794-47.178h-82Zm54.054-16.348,5.718,8.8a1.914,1.914,0,0,1-.837,2.776,2.517,2.517,0,0,1-1.143.272h-15.063l.67.6a1.877,1.877,0,0,1,0,2.875,2.5,2.5,0,0,1-3.235,0l-4.574-4.065a1.876,1.876,0,0,1,0-2.874h0l4.574-4.065a2.494,2.494,0,0,1,3.235,0,1.876,1.876,0,0,1,0,2.874l-.67.6h11.1l-3.737-5.751a1.914,1.914,0,0,1,.816-2.782,2.453,2.453,0,0,1,3.13.725l.015.024Zm-24.545-14.917,5.718-8.8a2.438,2.438,0,0,1,3.961,0l7.53,11.59.246-.813a2.33,2.33,0,0,1,2.8-1.437,2.02,2.02,0,0,1,1.617,2.489l-1.674,5.553a2.328,2.328,0,0,1-2.8,1.438h0l-6.248-1.488a2.02,2.02,0,0,1-1.618-2.489,2.329,2.329,0,0,1,2.8-1.437l.915.218c-2.7-4.161-4.437-6.831-5.549-8.542l-3.737,5.752a2.447,2.447,0,0,1-3.118.762,1.916,1.916,0,0,1-.858-2.772l.015-.023Zm-14.867,23.718,7.532-11.592-.915.218a2.33,2.33,0,0,1-2.8-1.437,2.02,2.02,0,0,1,1.617-2.489l6.249-1.488a2.33,2.33,0,0,1,2.8,1.436h0l1.674,5.553a2.02,2.02,0,0,1-1.617,2.489,2.33,2.33,0,0,1-2.8-1.437h0l-.246-.813-5.552,8.542h7.475a2.047,2.047,0,1,1,0,4.065h-11.436a2.171,2.171,0,0,1-2.287-2.032,1.862,1.862,0,0,1,.306-1.016Z" fill="url(#linear-gradient)"/>
    <path id="Path_3323" data-name="Path 3323" d="M6678.342,263.007l-10.815-3.7-17.3,39.913h12.42Z" fill="url(#linear-gradient)"/>
    <path id="Path_3324" data-name="Path 3324" d="M6594.372,270.766h4.575v4.065h-4.575Z" fill="url(#linear-gradient-7)"/>
    <path id="Path_3325" data-name="Path 3325" d="M6587.511,287.025h18.3v4.064h-18.3Z" fill="url(#linear-gradient)"/>
    <path id="Path_3326" data-name="Path 3326" d="M6598.947,278.895h-4.575a6.876,6.876,0,0,0-6.468,4.065h17.511A6.876,6.876,0,0,0,6598.947,278.895Z" fill="url(#linear-gradient)"/>
  </g>
</svg>
