<svg xmlns="http://www.w3.org/2000/svg" xmlns:xlink="http://www.w3.org/1999/xlink" width="32.884" height="30.38" viewBox="0 0 32.884 30.38">
  <defs>
    <linearGradient id="linear-gradient" y1="0.5" x2="1" y2="0.5" gradientUnits="objectBoundingBox">
      <stop offset="0" stop-color="#39b54a"/>
      <stop offset="1" stop-color="#99d13f"/>
    </linearGradient>
  </defs>
  <g id="Check_with_Box" data-name="Check with Box" transform="translate(-2886.052 -478.197)">
    <path id="Path_3849" data-name="Path 3849" d="M2912.588,508.577h-25.395a1,1,0,0,1-1-1V482.183a1,1,0,0,1,1-1h25.395a1,1,0,0,1,1,1v25.394A1,1,0,0,1,2912.588,508.577Zm-24.395-2h23.395V483.183h-23.395Z" fill="#b3b3b3"/>
    <path id="Path_3887" data-name="Path 3887" d="M2899.89,501.047a2.493,2.493,0,0,1-1.621-.6l-11.339-9.666a2.5,2.5,0,0,1,3.244-3.8l9.513,8.11L2914.6,479a2.5,2.5,0,1,1,3.668,3.4l-16.545,17.851A2.5,2.5,0,0,1,2899.89,501.047Z" fill="url(#linear-gradient)"/>
  </g>
</svg>
