<?xml version="1.0" encoding="utf-8"?>
<!-- Generator: Adobe Illustrator 24.0.1, SVG Export Plug-In . SVG Version: 6.00 Build 0)  -->
<svg version="1.1" id="Layer_1" xmlns="http://www.w3.org/2000/svg" xmlns:xlink="http://www.w3.org/1999/xlink" x="0px" y="0px"
	 viewBox="0 0 512 512" style="enable-background:new 0 0 512 512;" xml:space="preserve">
<style type="text/css">
	.st0{clip-path:url(#SVGID_2_);}
	.st1{fill:#EAFCFC;}
	.st2{opacity:0.8;fill:#FFFFFF;enable-background:new    ;}
	.st3{opacity:0.5;fill:#C5DDF9;enable-background:new    ;}
	.st4{fill:#92DD7A;}
	.st5{fill:#161616;}
	.st6{fill:#44A321;}
	.st7{fill:#B1EF97;}
	.st8{fill:#1A2538;}
</style>
<g id="City_Background" transform="translate(-377.23 -40.203)">
	<g>
		<g>
			<defs>
				<path id="SVGID_1_" d="M379.3,532.7V33.9h527.8v498.7c-30-11.3-75.5-24.5-131.2-24.4c-69,0.1-106.7,20.8-164.9,33
					C559.8,551.9,483.7,557.9,379.3,532.7z"/>
			</defs>
			<clipPath id="SVGID_2_">
				<use xlink:href="#SVGID_1_"  style="overflow:visible;"/>
			</clipPath>
			<g id="Group_1183" class="st0">
				<g id="Group_1182">
					<g id="Group_1181">
						<path id="Path_4464" class="st1" d="M1365.6,597.5c39.3-54.6,14-406.7-49.5-442.3c-69.7-39.2-125.6,26.1-180.4-25.7
							c-23.9-22.6-4.1-78.8-53.4-97.1c-69.3-26-242.9,71.2-215.5-0.5C894.3-40,708.1-89.6,530.5-80.1S385.9,26.8,388.4,42.5
							c2.5,15.7,28.6,91.8-72.6,126.7s-78,82.6-68,109.8c8.7,23.7,57.7,51.9-13.7,113.3c-59.4,51.2-43.7,178.3-26.4,204.2
							L1365.6,597.5z"/>
						<path id="Path_4465" class="st2" d="M650.9,149.4c-2.2-9.2-11.2-16.1-21.8-16.1c-1.8,0-3.8,0.3-5.7,0.7
							c-5.3-10.4-16.6-17.5-29.8-17.5c-3.3,0-6.6,0.4-9.8,1.3c-7.8-11.5-20.8-18.3-34.7-18.2c-17.5,0-32.5,10.3-38.1,24.8
							c-4.2-2.1-8.8-3.3-13.6-3.3c-15.3,0-27.8,11.5-27.8,25.7c0,0.8,0,1.7,0.1,2.5L650.9,149.4z"/>
						<path id="Path_4466" class="st2" d="M577.4,15.2c2-7.9,9.5-13.7,18.6-13.7c1.6,0,3.3,0.1,4.9,0.5c5-9.4,14.8-15.2,25.5-15
							c2.8,0,5.7,0.4,8.3,1.2c6.6-9.9,17.8-15.7,29.7-15.6c14.9,0,27.7,8.8,32.6,21.1c3.6-1.8,7.5-2.8,11.6-2.8
							c13.1,0,23.7,9.9,23.7,22c0,0.7,0,1.5-0.1,2.1H577.4V15.2z"/>
						<path id="Path_4467" class="st2" d="M752.3,136.3c1.3-4.6,5.7-7.8,10.4-7.7c0.9,0,1.8,0.1,2.8,0.3c2.8-5.3,8.3-8.6,14.2-8.4
							c1.6,0,3.2,0.3,4.7,0.7c3.7-5.5,10-8.8,16.6-8.7c7.9-0.1,15.2,4.5,18.3,11.9c2-1.1,4.2-1.6,6.5-1.6c7.4,0,13.3,5.5,13.3,12.4
							c0,0.4,0,0.8,0,1.2H752.3z"/>
						<path id="Path_4468" class="st2" d="M997.6,167.6c2.1-7.3,8.7-12.3,16.4-12c1.5,0,2.9,0.1,4.2,0.5
							c4.4-8.2,13.1-13.3,22.3-13.2c2.5,0,5,0.4,7.4,1.1c5.8-8.6,15.6-13.7,26-13.6c13.2,0,24.3,7.8,28.5,18.5
							c3.2-1.6,6.6-2.5,10.2-2.4c11.5,0,20.8,8.7,20.8,19.3c0,0.7,0,1.2-0.1,1.8L997.6,167.6z"/>
						<path id="Path_4469" class="st3" d="M1309.8,427.1h-31.4v-63.6h-17.5v28.4h-24.9v-65.3H1195v59.8l-12.3,0.4v-60.2h-14.2v-25.7
							h-8.6v-17.3h-33.4v17.3h-8.6v25.7h-14.2v32.6l-6.6,0.4l-2-96.7H1051v51.5l-15.4,0.4v-80.5h-5.3v-17h-46.4v17h-5.3v94.2h-9.8
							v-19.8h-8.2v-16.4h-11.9v-48.2h-17.2v48.2h-11.9v16.5h-8.2v32.6h-10.2v-41.7l-97.5,3l-23.1,54.6h-10.2v-19.5h-25.3V206.1
							h-23.2V220h-10.6v107h-36.7v19.5h-31.1v-45.8l-49.2-1.1v66.2H590h-5.7v-57.1h-8.2v-16.5h-11.9v-48.2h-17.2v48.2h-11.9v16.5
							h-8.2v33.8h-9.8V234.2H512v-17h-46.4v17h-5.3v80.4l-15.4-0.4v-51.5H420l-0.4,96.7l-7-0.4v-97.6h-34.7v-25.7h-8.6v-17.3h-33.4
							v17.3h-8.6v90.6h-14.2v60.2l-12.3-0.4v-59.5l-40.9,39.6V392h-27.3v200.3h544.9h532.3V427.1z"/>
						<path id="Path_4470" class="st4" d="M987.4,576.2c-147.9-15.8-333-170.2-458.6-188.2c-132.3-19-268.5,192.4-268.5,192.4
							l727-1.8L987.4,576.2z"/>
						<g id="Group_1179">
							<rect id="Rectangle_2020" x="483.9" y="416.6" class="st5" width="6.6" height="72.7"/>
							<path id="Path_4471" class="st6" d="M487.2,275.5l-21.4,173h42.9L487.2,275.5z"/>
							<path id="Path_4472" class="st7" d="M473.7,385.8l30.5,26.1l-1.2-9.5L474.6,378L473.7,385.8z"/>
							<path id="Path_4473" class="st7" d="M478.3,347.8l18.7,6.3l-0.9-7.1l-17-5.8L478.3,347.8z"/>
						</g>
						<g id="Group_1180">
							<rect id="Rectangle_2021" x="547.9" y="435.3" class="st5" width="5.9" height="54.6"/>
							<path id="Path_4474" class="st6" d="M551.8,337.9l-15.3,110.3h30.7L551.8,337.9z"/>
							<path id="Path_4475" class="st7" d="M537.2,441.2l27.6-8.7l-0.4-3l-26.7,8.4L537.2,441.2z"/>
							<path id="Path_4476" class="st7" d="M542.1,406.4l18.2-5.8l-0.4-3l-17.3,5.5L542.1,406.4z"/>
						</g>
						<path id="Path_4477" class="st7" d="M207.5,596.5c0,0,132.2-126.1,302.5-133.8c57.3-2.6,291.5,49.6,488.9,90.5
							c8.3,1.7,215.1,43.7,243.2,44.9L207.5,596.5z"/>
						<rect id="Rectangle_2022" x="181.5" y="594.8" class="st8" width="1204" height="3.2"/>
					</g>
				</g>
			</g>
		</g>
	</g>
</g>
</svg>
