<?xml version="1.0" encoding="utf-8"?>
<!-- Generator: Adobe Illustrator 24.0.1, SVG Export Plug-In . SVG Version: 6.00 Build 0)  -->
<svg version="1.1" id="Layer_1" xmlns="http://www.w3.org/2000/svg" xmlns:xlink="http://www.w3.org/1999/xlink" x="0px" y="0px"
	 viewBox="0 0 400 391.5" style="enable-background:new 0 0 400 391.5;" xml:space="preserve">
<style type="text/css">
	.st0{clip-path:url(#SVGID_2_);}
	.st1{fill:#EAFCFC;}
	.st2{opacity:0.8;fill:#FFFFFF;enable-background:new    ;}
	.st3{opacity:0.5;fill:#C5DDF9;enable-background:new    ;}
	.st4{fill:#92DD7A;}
	.st5{fill:#B1EF97;}
	.st6{fill:#44A321;}
	.st7{fill:#1A2538;}
</style>
<g id="City_Background" transform="translate(-377.23 -40.203)">
	<g>
		<g>
			<defs>
				<path id="SVGID_1_" d="M377.2,418.2v-378h400v378c-22.7-8.6-57.2-18.6-99.4-18.5c-52.3,0.1-80.9,15.8-125,25
					C514,432.8,456.3,437.3,377.2,418.2z"/>
			</defs>
			<clipPath id="SVGID_2_">
				<use xlink:href="#SVGID_1_"  style="overflow:visible;"/>
			</clipPath>
			<g id="Group_1183" class="st0">
				<g id="Group_1182">
					<g id="Group_1181">
						<path id="Path_4464" class="st1" d="M1124.7,467.3c29.8-41.4,10.6-308.2-37.5-335.2c-52.8-29.7-95.2,19.8-136.7-19.5
							C932.4,95.5,947.4,52.9,910,39c-52.5-19.7-184.1,54-163.3-0.4s-120.3-92-254.9-84.8s-109.6,81-107.7,92.9s21.7,69.6-55,96
							s-59.1,62.6-51.5,83.2c6.6,18,43.7,39.3-10.4,85.9c-45,38.8-33.1,135.1-20,154.8L1124.7,467.3z"/>
						<path id="Path_4465" class="st2" d="M583,127.7c-1.7-7-8.5-12.2-16.5-12.2c-1.4,0-2.9,0.2-4.3,0.5c-4-7.9-12.6-13.3-22.6-13.3
							c-2.5,0-5,0.3-7.4,1c-5.9-8.7-15.8-13.9-26.3-13.8c-13.3,0-24.6,7.8-28.9,18.8c-3.2-1.6-6.7-2.5-10.3-2.5
							c-11.6,0-21.1,8.7-21.1,19.5c0,0.6,0,1.3,0.1,1.9L583,127.7z"/>
						<path id="Path_4466" class="st2" d="M527.3,26c1.5-6,7.2-10.4,14.1-10.4c1.2,0,2.5,0.1,3.7,0.4c3.8-7.1,11.2-11.5,19.3-11.4
							c2.1,0,4.3,0.3,6.3,0.9c5-7.5,13.5-11.9,22.5-11.8c11.3,0,21,6.7,24.7,16c2.7-1.4,5.7-2.1,8.8-2.1c9.9,0,18,7.5,18,16.7
							c0,0.5,0,1.1-0.1,1.6L527.3,26L527.3,26z"/>
						<path id="Path_4467" class="st2" d="M659.9,117.8c1-3.5,4.3-5.9,7.9-5.8c0.7,0,1.4,0.1,2.1,0.2c2.1-4,6.3-6.5,10.8-6.4
							c1.2,0,2.4,0.2,3.6,0.5c2.8-4.2,7.6-6.7,12.6-6.6c6-0.1,11.5,3.4,13.9,9c1.5-0.8,3.2-1.2,4.9-1.2c5.6,0,10.1,4.2,10.1,9.4
							c0,0.3,0,0.6,0,0.9H659.9z"/>
						<path id="Path_4468" class="st2" d="M845.8,141.5c1.6-5.5,6.6-9.3,12.4-9.1c1.1,0,2.2,0.1,3.2,0.4c3.3-6.2,9.9-10.1,16.9-10
							c1.9,0,3.8,0.3,5.6,0.8c4.4-6.5,11.8-10.4,19.7-10.3c10,0,18.4,5.9,21.6,14c2.4-1.2,5-1.9,7.7-1.8c8.7,0,15.8,6.6,15.8,14.6
							c0,0.5,0,0.9-0.1,1.4L845.8,141.5z"/>
						<path id="Path_4469" class="st3" d="M1082.4,338.2h-23.8V290h-13.3v21.5h-18.9V262h-31v45.3l-9.3,0.3V262h-10.8v-19.5h-6.5
							v-13.1h-25.3v13.1H937V262h-10.8v24.7l-5,0.3l-1.5-73.3h-33.4v39l-11.7,0.3v-61h-4v-12.9h-35.2V192h-4v71.4H824v-15h-6.2V236
							h-9v-36.5h-13V236h-9v12.5h-6.2v24.7h-7.7v-31.6l-73.9,2.3l-17.5,41.4h-7.7v-14.8h-19.2v-99.8H637v10.5h-8v81.1h-27.8v14.8
							h-23.6v-34.7l-37.3-0.8v50.2h-3.4h-4.3v-43.3h-6.2V236h-9v-36.5h-13V236h-9v12.5h-6.2v25.6h-7.4V192h-4v-12.9h-35.2V192h-4
							v60.9l-11.7-0.3v-39H408l-0.3,73.3l-5.3-0.3v-74h-26.3v-19.5h-6.5V180h-25.3v13.1h-6.5v68.7H327v45.6l-9.3-0.3V262l-31,30
							v19.6H266v151.8h413h403.4V338.2z"/>
						<path id="Path_4470" class="st4" d="M838.1,451.2c-112.1-12-252.4-129-347.6-142.6C390.2,294.2,287,454.4,287,454.4l551-1.4
							L838.1,451.2z"/>
						<g id="Group_1179">
							<rect id="Rectangle_2020" x="456.5" y="330.2" width="5" height="55.1"/>
							<path id="Path_4471" d="M459,223.3l-16.2,131.1h32.5L459,223.3z"/>
							<path id="Path_4472" class="st5" d="M448.7,306.9l23.1,19.8l-0.9-7.2L449.4,301L448.7,306.9z"/>
							<path id="Path_4473" class="st5" d="M452.2,278.1l14.2,4.8l-0.7-5.4l-12.9-4.4L452.2,278.1z"/>
						</g>
						<g id="Group_1180">
							<rect id="Rectangle_2021" x="505" y="344.4" width="4.5" height="41.4"/>
							<path id="Path_4474" class="st6" d="M507.9,270.6l-11.6,83.6h23.3L507.9,270.6z"/>
							<path id="Path_4475" class="st5" d="M496.9,348.9l20.9-6.6l-0.3-2.3l-20.2,6.4L496.9,348.9z"/>
							<path id="Path_4476" class="st5" d="M500.6,322.5l13.8-4.4l-0.3-2.3L501,320L500.6,322.5z"/>
						</g>
						<path id="Path_4477" class="st5" d="M247,466.6c0,0,100.2-95.6,229.3-101.4c43.4-2,220.9,37.6,370.5,68.6
							c6.3,1.3,163,33.1,184.3,34L247,466.6z"/>
						<rect id="Rectangle_2022" x="227.3" y="465.3" class="st7" width="912.5" height="2.4"/>
					</g>
				</g>
			</g>
		</g>
	</g>
</g>
</svg>
