<?xml version="1.0" encoding="utf-8"?>
<!-- Generator: Adobe Illustrator 24.0.1, SVG Export Plug-In . SVG Version: 6.00 Build 0)  -->
<svg version="1.1" id="Layer_1" xmlns="http://www.w3.org/2000/svg" xmlns:xlink="http://www.w3.org/1999/xlink" x="0px" y="0px"
	 viewBox="0 0 21.6 14.7" style="enable-background:new 0 0 21.6 14.7;" xml:space="preserve">
<style type="text/css">
	.st0{fill:#FFFFFF;}
</style>
<g id="Eye_Gray" transform="translate(-2723.847 -299.067)">
	<path id="Path_3803" class="st0" d="M2734.6,303.5c-1.6,0-2.9,1.3-2.9,2.9c0,1.6,1.3,2.9,2.9,2.9c1.6,0,2.9-1.3,2.9-2.9
		c0,0,0,0,0,0C2737.6,304.8,2736.3,303.5,2734.6,303.5z"/>
	<path id="Path_3804" class="st0" d="M2734.6,299.1c-4.8,0-9,2.9-10.8,7.4c2.3,6,9.1,8.9,15,6.6c3-1.2,5.4-3.6,6.6-6.6
		C2743.7,302,2739.4,299.1,2734.6,299.1z M2734.6,311.3c-2.7,0-4.9-2.2-4.9-4.9s2.2-4.9,4.9-4.9c2.7,0,4.9,2.2,4.9,4.9c0,0,0,0,0,0
		C2739.5,309.1,2737.3,311.3,2734.6,311.3L2734.6,311.3z"/>
</g>
</svg>
