<?xml version="1.0" encoding="utf-8"?>
<!-- Generator: Adobe Illustrator 24.0.1, SVG Export Plug-In . SVG Version: 6.00 Build 0)  -->
<svg version="1.1" id="Layer_1" xmlns="http://www.w3.org/2000/svg" xmlns:xlink="http://www.w3.org/1999/xlink" x="0px" y="0px"
	 viewBox="0 0 512 161.1" style="enable-background:new 0 0 512 161.1;" xml:space="preserve">
<style type="text/css">
	.st0{fill:#575756;}
	.st1{fill-rule:evenodd;clip-rule:evenodd;fill:#575756;}
	.st2{fill:#65B32E;}
	.st3{display:none;}
	.st4{display:inline;fill:#FFFFFF;}
	.st5{display:inline;fill-rule:evenodd;clip-rule:evenodd;fill:#FFFFFF;}
</style>
<g>
	<rect x="5.9" y="41.5" class="st0" width="8.7" height="75.9"/>
	<path class="st0" d="M58.7,60.6c-11.7-1.4-17.6,7-19.8,15.2l-0.1-0.1c0.8-4.8,1.2-10.4,1.2-14.1h-8.3v55.9h8.4V95.1
		c0-18.8,5.9-28.2,18.2-26.2L58.7,60.6"/>
	<path class="st1" d="M108.8,87.7c0,16.9-7.5,23.9-19.1,23.9c-4.2,0-7.7-0.5-10.9-1.5V90.5c0-9.9,5.4-23,16.7-23
		C104.7,67.5,108.8,75.1,108.8,87.7 M117.7,87c0-17.3-7.4-26.4-20.6-26.4c-8.9,0-16,5.2-19.1,13.3l-0.2-0.1
		c0.7-3.3,0.9-8.8,0.9-12.1h-8.3v83.9h8.4v-28.1c3.7,0.7,6.5,0.8,10.3,0.8C106.8,118.2,117.7,107,117.7,87z"/>
	<path class="st1" d="M441.1,87.7c0,16.9-7.5,23.9-19.1,23.9c-4.2,0-7.7-0.5-10.9-1.5V90.5c0-9.9,5.4-23,16.7-23
		C436.9,67.5,441.1,75.1,441.1,87.7 M450,87c0-17.3-7.4-26.4-20.6-26.4c-8.9,0-16,5.2-19.1,13.3l-0.2-0.1c0.7-3.3,0.9-8.8,0.9-12.1
		h-8.3v83.9h8.4v-28.1c3.7,0.7,6.5,0.8,10.3,0.8C439,118.2,450,107,450,87z"/>
	<path class="st1" d="M497.3,87.7c0,16.9-7.5,23.9-19.1,23.9c-4.2,0-7.7-0.5-10.9-1.5V90.5c0-9.9,5.4-23,16.7-23
		C493.1,67.5,497.3,75.1,497.3,87.7 M506.1,87c0-17.3-7.4-26.4-20.6-26.4c-8.9,0-16,5.2-19.1,13.3l-0.2-0.1
		c0.7-3.3,0.9-8.8,0.9-12.1h-8.3v83.9h8.4v-28.1c3.7,0.7,6.5,0.8,10.3,0.8C495.2,118.2,506.1,107,506.1,87z"/>
	<path class="st1" d="M129.8,117.5h8.4V61.6h-8.4V117.5z M140,45.7c0-3.2-2.7-5.7-5.9-5.7c-3.3,0-5.9,2.6-5.9,5.7
		c0,3.3,2.6,5.7,5.9,5.7C137.3,51.5,140,49,140,45.7z"/>
	<path class="st0" d="M199.9,117.5v-39c0-9.9-3.9-18-16.8-18c-9.8,0-16.9,5.5-20,13.6l-0.2-0.1c0.6-3.4,0.9-8.8,0.9-12.4h-8.3v55.9
		h8.4V90.6c0-13.3,7.1-23.2,17.1-23.2c8.1,0,10.5,5.1,10.5,13.8v36.2H199.9"/>
	<path class="st1" d="M217,117.5h8.4V61.6H217V117.5z M227.1,45.7c0-3.2-2.7-5.7-5.9-5.7c-3.3,0-5.9,2.6-5.9,5.7
		c0,3.3,2.6,5.7,5.9,5.7C224.4,51.5,227.1,49,227.1,45.7z"/>
	<path class="st2" d="M245,80.8c0-38.9,31.5-70.4,70.4-70.4s70.4,31.5,70.4,70.4c0,37.6-29.4,68.2-66.5,70.3v-15.5
		c0-0.5-0.1-1.1-0.3-1.6l-4.1-9.2c-0.8-1.8-2.9-2.6-4.7-1.8c-1.8,0.8-2.6,2.9-1.8,4.7l3.8,8.5v15C274.7,149.4,245,118.5,245,80.8
		 M318.9,36.4c-0.8-1.8-2.9-2.6-4.7-1.8c-1.8,0.8-2.6,2.9-1.8,4.7l4.1,9.2c0.8,1.8,2.9,2.6,4.7,1.8c1.8-0.8,2.6-2.9,1.8-4.7
		L318.9,36.4z M328.4,58.6c-0.8-1.8-2.9-2.6-4.7-1.8c-1.8,0.8-2.6,2.9-1.8,4.7l4.1,9.2c0.8,1.8,2.9,2.6,4.7,1.8
		c1.8-0.8,2.6-2.9,1.8-4.7L328.4,58.6z M307.3,58.6c-0.8-1.8-2.9-2.6-4.7-1.8c-1.8,0.8-2.6,2.9-1.8,4.7l4.1,9.2
		c0.8,1.8,2.9,2.6,4.7,1.8c1.8-0.8,2.6-2.9,1.8-4.7L307.3,58.6z M337.9,80.7c-0.8-1.8-2.9-2.6-4.7-1.8c-1.8,0.8-2.6,2.9-1.8,4.7
		l4.1,9.2c0.8,1.8,2.9,2.6,4.7,1.8c1.8-0.8,2.6-2.9,1.8-4.7L337.9,80.7z M316.8,80.7c-0.8-1.8-2.9-2.6-4.7-1.8
		c-1.8,0.8-2.6,2.9-1.8,4.7l4.1,9.2c0.8,1.8,2.9,2.6,4.7,1.8c1.8-0.8,2.6-2.9,1.8-4.7L316.8,80.7z M295.7,80.7
		c-0.8-1.8-2.9-2.6-4.7-1.8c-1.8,0.8-2.6,2.9-1.8,4.7l4.1,9.2c0.8,1.8,2.9,2.6,4.7,1.8c1.8-0.8,2.6-2.9,1.8-4.7L295.7,80.7z
		 M347.3,102.9c-0.8-1.8-2.9-2.6-4.7-1.8c-1.8,0.8-2.6,2.9-1.8,4.7l4.1,9.2c0.8,1.8,2.9,2.6,4.7,1.8c1.8-0.8,2.6-2.9,1.8-4.7
		L347.3,102.9z M326.1,102.9c-0.8-1.8-2.9-2.6-4.7-1.8c-1.8,0.8-2.6,2.9-1.8,4.7l4.1,9.2c0.8,1.8,2.9,2.6,4.7,1.8
		c1.8-0.8,2.6-2.9,1.8-4.7L326.1,102.9z M305.1,102.9c-0.8-1.8-2.9-2.6-4.7-1.8c-1.8,0.8-2.6,2.9-1.8,4.7l4.1,9.2
		c0.8,1.8,2.9,2.6,4.7,1.8c1.8-0.8,2.6-2.9,1.8-4.7L305.1,102.9z M284.2,102.9c-0.8-1.8-2.9-2.6-4.7-1.8c-1.8,0.8-2.6,2.9-1.8,4.7
		l4.1,9.2c0.8,1.8,2.9,2.6,4.7,1.8c1.8-0.8,2.6-2.9,1.8-4.7L284.2,102.9z"/>
</g>
<g class="st3">
	<rect x="4.1" y="41.3" class="st4" width="8.7" height="76.5"/>
	<path class="st4" d="M57.3,60.4c-11.8-1.4-17.7,7-19.9,15.3l-0.1-0.1c0.8-4.9,1.2-10.4,1.2-14.2h-8.4v56.3h8.5V95.2
		c0-18.9,5.9-28.4,18.4-26.4L57.3,60.4"/>
	<path class="st5" d="M107.8,87.7c0,17-7.6,24-19.3,24c-4.2,0-7.7-0.5-11-1.5V90.6c0-10,5.4-23.1,16.8-23.1
		C103.6,67.4,107.8,75,107.8,87.7 M116.8,87c0-17.4-7.5-26.6-20.7-26.6c-9,0-16.1,5.2-19.3,13.4l-0.2-0.1c0.7-3.3,0.9-8.8,0.9-12.2
		h-8.4V146h8.5v-28.3c3.7,0.7,6.6,0.8,10.4,0.8C105.8,118.4,116.8,107.2,116.8,87z"/>
	<path class="st5" d="M442.3,87.7c0,17-7.6,24-19.3,24c-4.2,0-7.7-0.5-11-1.5V90.6c0-10,5.4-23.1,16.8-23.1
		C438.1,67.4,442.3,75,442.3,87.7 M451.3,87c0-17.4-7.5-26.6-20.7-26.6c-9,0-16.1,5.2-19.3,13.4l-0.2-0.1c0.7-3.3,0.9-8.8,0.9-12.2
		h-8.4V146h8.5v-28.3c3.7,0.7,6.6,0.8,10.4,0.8C440.3,118.4,451.3,107.2,451.3,87z"/>
	<path class="st5" d="M498.9,87.7c0,17-7.6,24-19.3,24c-4.2,0-7.7-0.5-11-1.5V90.6c0-10,5.4-23.1,16.8-23.1
		C494.7,67.4,498.9,75,498.9,87.7 M507.9,87c0-17.4-7.5-26.6-20.7-26.6c-9,0-16.1,5.2-19.3,13.4l-0.2-0.1c0.7-3.3,0.9-8.8,0.9-12.2
		h-8.4V146h8.5v-28.3c3.7,0.7,6.6,0.8,10.4,0.8C496.9,118.4,507.9,107.2,507.9,87z"/>
	<path class="st5" d="M129,117.8h8.5V61.4H129V117.8z M139.2,45.5c0-3.2-2.7-5.8-5.9-5.8c-3.3,0-5.9,2.6-5.9,5.8
		c0,3.3,2.6,5.8,5.9,5.8C136.4,51.3,139.2,48.8,139.2,45.5z"/>
	<path class="st4" d="M199.5,117.8V78.4c0-10-4-18.1-16.9-18.1c-9.9,0-17,5.6-20.2,13.7l-0.2-0.1c0.6-3.4,0.9-8.8,0.9-12.5h-8.4
		v56.3h8.5V90.7c0-13.4,7.1-23.3,17.2-23.3c8.2,0,10.5,5.1,10.5,13.9v36.5H199.5"/>
	<path class="st5" d="M216.7,117.8h8.5V61.4h-8.5V117.8z M226.9,45.5c0-3.2-2.7-5.8-5.9-5.8c-3.3,0-5.9,2.6-5.9,5.8
		c0,3.3,2.6,5.8,5.9,5.8C224.2,51.3,226.9,48.8,226.9,45.5z"/>
	<path class="st4" d="M244.9,80.8c0-39.1,31.7-70.9,70.9-70.9s70.9,31.7,70.9,70.9c0,37.8-29.6,68.7-66.9,70.8v-15.6
		c0-0.5-0.1-1.1-0.3-1.6l-4.1-9.3c-0.8-1.8-3-2.6-4.8-1.8c-1.8,0.8-2.6,2.9-1.8,4.8l3.8,8.6v15.1
		C274.9,149.8,244.9,118.8,244.9,80.8 M319.3,36.1c-0.8-1.8-2.9-2.6-4.8-1.8c-1.8,0.8-2.6,2.9-1.8,4.8l4.1,9.3
		c0.8,1.8,2.9,2.6,4.8,1.8c1.8-0.8,2.6-2.9,1.8-4.8L319.3,36.1z M328.9,58.4c-0.8-1.8-2.9-2.6-4.8-1.8c-1.8,0.8-2.6,2.9-1.8,4.8
		l4.1,9.3c0.8,1.8,2.9,2.6,4.8,1.8c1.8-0.8,2.6-2.9,1.8-4.8L328.9,58.4z M307.7,58.4c-0.8-1.8-2.9-2.6-4.8-1.8
		c-1.8,0.8-2.6,2.9-1.8,4.8l4.1,9.3c0.8,1.8,2.9,2.6,4.8,1.8c1.8-0.8,2.6-2.9,1.8-4.8L307.7,58.4z M338.5,80.7
		c-0.8-1.8-2.9-2.6-4.8-1.8c-1.8,0.8-2.6,2.9-1.8,4.8l4.1,9.3c0.8,1.8,2.9,2.6,4.8,1.8c1.8-0.8,2.6-2.9,1.8-4.8L338.5,80.7z
		 M317.2,80.7c-0.8-1.8-2.9-2.6-4.8-1.8c-1.8,0.8-2.6,2.9-1.8,4.8l4.1,9.3c0.8,1.8,2.9,2.6,4.8,1.8c1.8-0.8,2.6-2.9,1.8-4.8
		L317.2,80.7z M296,80.7c-0.8-1.8-2.9-2.6-4.8-1.8c-1.8,0.8-2.6,2.9-1.8,4.8l4.1,9.3c0.8,1.8,2.9,2.6,4.8,1.8
		c1.8-0.8,2.6-2.9,1.8-4.8L296,80.7z M347.9,103c-0.8-1.8-2.9-2.6-4.8-1.8c-1.8,0.8-2.6,2.9-1.8,4.8l4.1,9.3
		c0.8,1.8,2.9,2.6,4.8,1.8c1.8-0.8,2.6-2.9,1.8-4.8L347.9,103z M326.6,103c-0.8-1.8-2.9-2.6-4.8-1.8c-1.8,0.8-2.6,2.9-1.8,4.8
		l4.1,9.3c0.8,1.8,2.9,2.6,4.8,1.8c1.8-0.8,2.6-2.9,1.8-4.8L326.6,103z M305.4,103c-0.8-1.8-2.9-2.6-4.8-1.8
		c-1.8,0.8-2.6,2.9-1.8,4.8l4.1,9.3c0.8,1.8,2.9,2.6,4.8,1.8c1.8-0.8,2.6-2.9,1.8-4.8L305.4,103z M284.4,103
		c-0.8-1.8-2.9-2.6-4.8-1.8c-1.8,0.8-2.6,2.9-1.8,4.8l4.1,9.3c0.8,1.8,2.9,2.6,4.8,1.8c1.8-0.8,2.6-2.9,1.8-4.8L284.4,103z"/>
</g>
</svg>
