<svg xmlns="http://www.w3.org/2000/svg" width="235.576" height="39.099" viewBox="0 0 235.576 39.099">
  <g id="logo" transform="translate(-50.908 -144.917)">
    <rect id="Rectangle_2026" data-name="Rectangle 2026" width="2.408" height="21.109" transform="translate(50.908 153.581)" fill="#fff"/>
    <path id="Path_4516" data-name="Path 4516" d="M65.59,158.867c-3.252-.375-4.878,1.938-5.5,4.221l-.032-.03a26.7,26.7,0,0,0,.344-3.909H58.085v15.542h2.346v-6.224c0-5.222,1.625-7.848,5.066-7.286l.093-2.314" fill="#fff"/>
    <path id="Path_4517" data-name="Path 4517" d="M79.53,166.4c0,4.691-2.1,6.63-5.316,6.63a10.045,10.045,0,0,1-3.033-.407v-5.441c0-2.752,1.5-6.38,4.628-6.38,2.564,0,3.721,2.1,3.721,5.6m2.47-.187c0-4.817-2.063-7.349-5.722-7.349a5.576,5.576,0,0,0-5.316,3.69l-.063-.031a20.177,20.177,0,0,0,.251-3.377H68.836v23.328h2.345v-7.819a14.646,14.646,0,0,0,2.876.22C78.967,174.878,82,171.781,82,166.216Z" fill="#fff" fill-rule="evenodd"/>
    <path id="Path_4518" data-name="Path 4518" d="M85.362,174.691h2.345V159.149H85.362Zm2.814-19.952a1.628,1.628,0,0,0-1.626-1.594,1.609,1.609,0,0,0-1.627,1.594,1.589,1.589,0,0,0,1.627,1.6A1.607,1.607,0,0,0,88.176,154.739Z" fill="#fff" fill-rule="evenodd"/>
    <path id="Path_4519" data-name="Path 4519" d="M104.825,174.69V163.838c0-2.751-1.094-5-4.659-5a5.748,5.748,0,0,0-5.567,3.784l-.062-.031a24.809,24.809,0,0,0,.25-3.44H92.473V174.69h2.345v-7.474c0-3.69,1.971-6.442,4.753-6.442,2.252,0,2.909,1.407,2.909,3.846v10.07h2.345" fill="#fff"/>
    <path id="Path_4520" data-name="Path 4520" d="M109.59,174.691h2.346V159.149H109.59Zm2.815-19.952a1.629,1.629,0,0,0-1.627-1.594,1.609,1.609,0,0,0-1.626,1.594,1.589,1.589,0,0,0,1.626,1.6A1.608,1.608,0,0,0,112.4,154.739Z" fill="#fff" fill-rule="evenodd"/>
    <path id="Path_4521" data-name="Path 4521" d="M182.045,174.69V163.9c0-3.5-1.689-5.066-4.6-5.066a5.762,5.762,0,0,0-5.409,3.721c-.063-1.187-.813-3.721-4.347-3.721a5.732,5.732,0,0,0-5.473,3.784l-.061-.031a21.162,21.162,0,0,0,.249-3.44h-2.314V174.69h2.346v-7.411c0-3.815,2.1-6.505,4.659-6.505,2.377,0,2.815,1.719,2.815,3.846v10.07h2.314v-7.411c0-4.034,2.282-6.505,4.659-6.505,2.251,0,2.815,1.533,2.815,3.878V174.69h2.345" fill="#fff"/>
    <path id="Path_4522" data-name="Path 4522" d="M197.507,166.4c0,4.691-2.094,6.63-5.316,6.63a9.908,9.908,0,0,1-3.033-.407v-5.441c0-2.752,1.5-6.38,4.628-6.38,2.564,0,3.721,2.1,3.721,5.6m2.471-.187c0-4.817-2.064-7.349-5.722-7.349a5.537,5.537,0,0,0-5.317,3.753l-.062-.032a13.917,13.917,0,0,0,.281-2.846v-7.88h-2.345v22.421a18.27,18.27,0,0,0,5.159.6C196.851,174.878,199.978,171.751,199.978,166.216Z" fill="#fff" fill-rule="evenodd"/>
    <path id="Path_4523" data-name="Path 4523" d="M203.338,174.691h2.345V159.149h-2.345Zm2.815-19.952a1.628,1.628,0,0,0-1.627-1.594,1.608,1.608,0,0,0-1.625,1.594,1.588,1.588,0,0,0,1.625,1.6A1.607,1.607,0,0,0,206.153,154.739Z" fill="#fff" fill-rule="evenodd"/>
    <path id="Path_4524" data-name="Path 4524" d="M219.424,164.683h-7.88c.375-2.439,1.939-4.033,4.128-4.033a3.594,3.594,0,0,1,3.752,4.033m2.439.6c0-3.44-1.781-6.411-6.066-6.411-4.316,0-6.816,3.471-6.816,8.13,0,5.441,2.5,7.975,7.192,7.975a13.521,13.521,0,0,0,5.128-.938l-.219-2a10.506,10.506,0,0,1-4.5,1c-3.47,0-5.316-1.939-5.159-6.6H221.8A8.522,8.522,0,0,0,221.863,165.278Z" fill="#fff" fill-rule="evenodd"/>
    <path id="Path_4525" data-name="Path 4525" d="M237.674,174.69V163.838c0-2.751-1.1-5-4.659-5a5.748,5.748,0,0,0-5.567,3.784l-.063-.031a24.653,24.653,0,0,0,.251-3.44h-2.314V174.69h2.345v-7.474c0-3.69,1.971-6.442,4.753-6.442,2.252,0,2.909,1.407,2.909,3.846v10.07h2.345" fill="#fff"/>
    <path id="Path_4526" data-name="Path 4526" d="M249.944,174.627v-2.033a8.11,8.11,0,0,1-2.22.282c-1.844,0-2.345-.719-2.345-3.5v-8.382h4.565v-1.844h-4.565v-5.816l-2.345.656v5.16h-3.378v1.844h3.378v9.351c0,3.221.906,4.6,4.034,4.6a13.712,13.712,0,0,0,2.876-.313" fill="#fff"/>
    <path id="Path_4527" data-name="Path 4527" d="M262.058,164.683h-7.88c.375-2.439,1.939-4.033,4.127-4.033a3.6,3.6,0,0,1,3.753,4.033m2.439.6c0-3.44-1.782-6.411-6.066-6.411-4.316,0-6.817,3.471-6.817,8.13,0,5.441,2.5,7.975,7.192,7.975a13.53,13.53,0,0,0,5.129-.938l-.219-2a10.509,10.509,0,0,1-4.5,1c-3.471,0-5.315-1.939-5.16-6.6h10.382A8.387,8.387,0,0,0,264.5,165.278Z" fill="#fff" fill-rule="evenodd"/>
    <path id="Path_4528" data-name="Path 4528" d="M117.361,164.476a19.559,19.559,0,1,1,20.651,19.531V179.69a.977.977,0,0,0-.085-.446l-1.143-2.567a1,1,0,0,0-1.822.812l1.056,2.368v4.159a19.561,19.561,0,0,1-18.657-19.54m20.55-12.327a1,1,0,0,0-1.821.81l1.142,2.567a1,1,0,0,0,1.823-.81Zm2.628,6.169a1,1,0,0,0-1.822.811l1.143,2.566a1,1,0,0,0,1.822-.81Zm-5.844,0a1,1,0,0,0-1.822.811l1.143,2.566a1,1,0,0,0,1.822-.81Zm8.5,6.137a1,1,0,0,0-1.822.812l1.142,2.566a1,1,0,0,0,1.821-.811Zm-5.873,0a1,1,0,0,0-1.822.812l1.142,2.566a1,1,0,0,0,1.822-.811Zm-5.844,0a1,1,0,0,0-1.822.812l1.142,2.566a1,1,0,0,0,1.822-.811Zm14.318,6.171a1,1,0,0,0-1.822.811l1.142,2.568a1,1,0,0,0,1.822-.812Zm-5.872,0a1,1,0,0,0-1.822.811l1.142,2.568a1,1,0,0,0,1.821-.812Zm-5.844,0a1,1,0,0,0-1.822.811l1.142,2.568a1,1,0,0,0,1.822-.812Zm-5.82,0a1,1,0,0,0-1.822.811l1.142,2.568a1,1,0,0,0,1.822-.812Z" fill="#fff"/>
    <path id="Path_4529" data-name="Path 4529" d="M271.442,173.394c0-1.484-2.135-.887-2.135-1.932,0-.431.316-.7.958-.7a2.928,2.928,0,0,1,.9.15l.018-.571a4.568,4.568,0,0,0-.852-.1c-1.108,0-1.7.553-1.7,1.282,0,1.555,2.126.9,2.126,1.949,0,.458-.44.739-1.072.739a3.691,3.691,0,0,1-.975-.141l-.018.606a4.808,4.808,0,0,0,.922.089c1.143,0,1.828-.606,1.828-1.38" fill="#fff"/>
    <path id="Path_4530" data-name="Path 4530" d="M272.864,173.817a.475.475,0,1,0,.483.475.472.472,0,0,0-.483-.475" fill="#fff"/>
    <path id="Path_4531" data-name="Path 4531" d="M277.622,172.367c0,1.318-.588,1.862-1.493,1.862a2.79,2.79,0,0,1-.852-.114v-1.529c0-.772.422-1.792,1.3-1.792.72,0,1.045.589,1.045,1.573m.694-.053c0-1.353-.58-2.064-1.607-2.064a1.564,1.564,0,0,0-1.493,1.037l-.018-.01a5.744,5.744,0,0,0,.07-.948h-.65v6.554h.659v-2.2a4.105,4.105,0,0,0,.808.062A2.138,2.138,0,0,0,278.316,172.314Z" fill="#fff" fill-rule="evenodd"/>
    <path id="Path_4532" data-name="Path 4532" d="M279.534,173.817a.475.475,0,1,0,.483.475.472.472,0,0,0-.483-.475" fill="#fff"/>
    <path id="Path_4533" data-name="Path 4533" d="M283.58,172.718a1.423,1.423,0,0,1-1.282,1.52.641.641,0,0,1-.712-.649c0-.422.351-.94,1.994-.94v.069m.685,1.977c-.016-.386-.016-.878-.016-1.309v-1.713c0-.825-.344-1.423-1.547-1.423a3.709,3.709,0,0,0-1.512.325l.062.58a2.655,2.655,0,0,1,1.336-.378c.755,0,.992.369.992,1.028v.361c-1.7,0-2.652.631-2.652,1.546a1.053,1.053,0,0,0,1.195,1.063,1.6,1.6,0,0,0,1.519-1h.018a5.937,5.937,0,0,0-.044.922Z" fill="#fff" fill-rule="evenodd"/>
    <path id="Path_4534" data-name="Path 4534" d="M286,173.817a.475.475,0,1,0,.483.475.473.473,0,0,0-.483-.475" fill="#fff"/>
  </g>
</svg>
