<?xml version="1.0" encoding="utf-8"?>
<!-- Generator: Adobe Illustrator 24.0.1, SVG Export Plug-In . SVG Version: 6.00 Build 0)  -->
<svg version="1.1" id="Layer_1" xmlns="http://www.w3.org/2000/svg" xmlns:xlink="http://www.w3.org/1999/xlink" x="0px" y="0px"
	 viewBox="0 0 512 512" style="enable-background:new 0 0 512 512;" xml:space="preserve">
<style type="text/css">
	.st0{fill:#FFFFFF;}
</style>
<g>
	<g>
		<path class="st0" d="M496.8,179.4c-7.3-8.5-18.3-14-29.2-14h-30.4L319.8,20.6c-7.3-9.1-20.1-11-29.8-4.3
			c-9.1,7.3-11,20.1-4.3,29.8c0,0.6,0.6,0.6,0.6,1.2l96.7,118H122.7l96.1-118c7.9-8.5,7.3-21.9-1.2-29.8s-21.9-7.3-29.8,1.2
			c-0.6,0.6-1.2,1.2-1.8,1.8L68.5,166H44.2c-20.7,0-37.7,17-37.7,37.7c0,2.4,0,4.9,0.6,7.3l48.7,245.2c4.9,25.6,27.4,43.8,53.5,43.8
			h293.2c26.2,0,48.7-18.3,53.5-43.8L504.7,211C507.1,200.1,504.1,188.5,496.8,179.4z M192.6,378.3c0,11.6-9.7,21.3-21.3,21.3
			c-11.6,0-21.3-9.7-21.3-21.3v-86.4c0-11.6,9.7-21.3,21.3-21.3c11.6,0,21.3,9.7,21.3,21.3V378.3z M277.2,378.3
			c0,11.6-9.7,21.3-21.3,21.3s-21.3-9.7-21.3-21.3v-86.4c0-11.6,9.7-21.3,21.3-21.3s21.3,9.7,21.3,21.3V378.3z M361.1,378.3
			c0,11.6-9.7,21.3-21.3,21.3c-11.6,0-21.3-9.7-21.3-21.3v-86.4c0-11.6,9.7-21.3,21.3-21.3c11.6,0,21.3,9.7,21.3,21.3V378.3z"/>
	</g>
</g>
</svg>
