<svg xmlns="http://www.w3.org/2000/svg" xmlns:xlink="http://www.w3.org/1999/xlink" width="35.071" height="71.946" viewBox="0 0 35.071 71.946">
  <defs>
    <linearGradient id="linear-gradient" x1="-482.315" y1="-196.564" x2="-481.401" y2="-196.564" gradientUnits="objectBoundingBox">
      <stop offset="0" stop-color="#8cc63f"/>
      <stop offset="1" stop-color="#39b54a"/>
    </linearGradient>
    <linearGradient id="linear-gradient-2" x1="-503.546" y1="-243.138" x2="-502.592" y2="-243.138" xlink:href="#linear-gradient"/>
    <linearGradient id="linear-gradient-3" x1="-1053.008" y1="-480.876" x2="-1052.095" y2="-480.876" xlink:href="#linear-gradient"/>
    <linearGradient id="linear-gradient-4" x1="-506.207" y1="-167.825" x2="-505.249" y2="-167.825" xlink:href="#linear-gradient"/>
    <linearGradient id="linear-gradient-5" x1="-504.63" y1="-245.503" x2="-503.675" y2="-245.503" xlink:href="#linear-gradient"/>
  </defs>
  <g id="Plastic_Bottle_2" data-name="Plastic Bottle_2" transform="translate(-8832.229 -86.176)">
    <path id="Path_2961" data-name="Path 2961" d="M8838.569,138.423l15.939,4.547a2.828,2.828,0,0,1,1.943,3.494h0l-2.735,9.589a2.85,2.85,0,0,1-3.522,1.959h0l-15.9-4.534a2.851,2.851,0,0,1-1.959-3.523h0l2.735-9.589a2.826,2.826,0,0,1,3.494-1.943Z" fill="url(#linear-gradient)"/>
    <path id="Path_2962" data-name="Path 2962" d="M8858.38,130.387a2.556,2.556,0,0,1,1.759,3.153l-1.737,6.09a2.724,2.724,0,0,1-3.369,1.874l-16.133-4.6a2.727,2.727,0,0,1-1.874-3.37l1.736-6.09a2.558,2.558,0,0,1,3.16-1.758h0l16.46,4.7Z" fill="url(#linear-gradient-2)"/>
    <path id="Path_2963" data-name="Path 2963" d="M8864.817,94.28l-9.315-2.657a.256.256,0,0,1-.175-.315h0l1.32-4.628a.694.694,0,0,1,.858-.477h0l8.468,2.415a.7.7,0,0,1,.479.859h0l-1.32,4.628a.255.255,0,0,1-.314.175Z" fill="url(#linear-gradient-3)"/>
    <path id="Path_2964" data-name="Path 2964" d="M8862.31,116.384,8845.9,111.7a2.735,2.735,0,0,1-1.7-3.322l1.725-6.046,9.675-9.079,8.274,2.36,3.428,12.817-1.725,6.047A2.727,2.727,0,0,1,8862.31,116.384Z" fill="url(#linear-gradient-4)"/>
    <path id="Path_2965" data-name="Path 2965" d="M8845.486,113.191l16.46,4.7a2.564,2.564,0,0,1,1.757,3.16l-1.7,5.942a2.735,2.735,0,0,1-3.37,1.874l-16.133-4.6a2.734,2.734,0,0,1-1.874-3.37l1.7-5.942A2.564,2.564,0,0,1,8845.486,113.191Z" fill="url(#linear-gradient-5)"/>
  </g>
</svg>
