<svg xmlns="http://www.w3.org/2000/svg" xmlns:xlink="http://www.w3.org/1999/xlink" width="128.22" height="128.22" viewBox="0 0 128.22 128.22">
  <defs>
    <linearGradient id="linear-gradient" y1="0.5" x2="1" y2="0.5" gradientUnits="objectBoundingBox">
      <stop offset="0" stop-color="#8cc63f"/>
      <stop offset="1" stop-color="#39b54a"/>
    </linearGradient>
    <linearGradient id="linear-gradient-2" x1="0" y1="0.5" x2="1" y2="0.5" xlink:href="#linear-gradient"/>
    <linearGradient id="linear-gradient-3" x1="0" y1="0.5" x2="1" y2="0.5" xlink:href="#linear-gradient"/>
  </defs>
  <g id="Profile" transform="translate(-7618.775 -97.309)">
    <path id="Path_3135" data-name="Path 3135" d="M7706.694,101.626c.934.447,1.854.921,2.762,1.414C7708.548,102.547,7707.628,102.08,7706.694,101.626Z" fill="url(#linear-gradient)"/>
    <path id="Path_3136" data-name="Path 3136" d="M7747,161.419a64.027,64.027,0,1,1-45.033-61.228c1.5.467,2.989.987,4.443,1.561s2.882,1.2,4.289,1.874c.934.454,1.854.921,2.762,1.414q2.04,1.111,4,2.362c.867.56,1.721,1.134,2.555,1.727A64.182,64.182,0,0,1,7747,161.419Z" fill="url(#linear-gradient-2)"/>
    <path id="Path_3137" data-name="Path 3137" d="M7713.451,105.4c.867.553,1.721,1.127,2.555,1.727C7715.172,106.536,7714.318,105.962,7713.451,105.4Z" fill="url(#linear-gradient-3)"/>
    <path id="Path_3138" data-name="Path 3138" d="M7724.224,114.08a64.526,64.526,0,0,0-8.218-6.951A63.576,63.576,0,0,1,7724.224,114.08Z" fill="url(#linear-gradient-2)"/>
    <path id="Path_3139" data-name="Path 3139" d="M7732.78,201.676c-.754.933-1.534,1.841-2.328,2.721a64.327,64.327,0,0,1-19.738,14.795c-.534.254-1.067.507-1.6.747-1.04.461-2.088.9-3.148,1.308-.094.04-.187.073-.28.107-.5.193-1.008.38-1.515.553-.527.194-1.067.374-1.6.54-.06.02-.113.041-.166.054-.434.14-.867.273-1.308.4-.213.067-.427.127-.64.18-.3.094-.607.18-.914.254-.24.073-.487.14-.734.193-.333.094-.673.18-1.014.254-.3.073-.607.146-.92.213-.154.04-.314.073-.467.1-.4.087-.794.167-1.194.247-.267.053-.54.107-.814.147-.3.06-.607.113-.907.16-.32.06-.647.113-.974.153-.213.04-.434.074-.647.1-.334.047-.674.094-1.014.127-.32.047-.634.087-.954.12-.54.06-1.074.113-1.614.153-.52.047-1.041.08-1.568.107a.782.782,0,0,1-.18.014c-.6.04-1.2.066-1.807.08s-1.228.026-1.848.026a63.857,63.857,0,0,1-49.442-23.3c13-17.63,30.784-25.781,49.442-25.781C7712.268,176.448,7726.47,195.4,7732.78,201.676Z" fill="#92dd7a"/>
    <path id="Path_3140" data-name="Path 3140" d="M7705.424,135.124v7.511a22.539,22.539,0,1,1-45.079,0v-7.511a22.539,22.539,0,0,1,45.079,0Z" fill="#92dd7a"/>
  </g>
</svg>
