<svg xmlns="http://www.w3.org/2000/svg" width="19.001" height="13.586" viewBox="0 0 19.001 13.586">
  <g id="Redirect_Arrow_Gray" data-name="Redirect Arrow Gray" transform="translate(-8159.387 -391.409)">
    <path id="Path_3111" data-name="Path 3111" d="M8161.387,391.409a2,2,0,0,1,2,2v4h8.17l-.17-.12h0a2.019,2.019,0,1,1,2.88-2.83l3.53,3.53a2.2,2.2,0,0,1,.44.65,2.006,2.006,0,0,1,0,1.53,2.154,2.154,0,0,1-.44.66l-3.58,3.58h0a2,2,0,0,1-2.828,0l-.052-.054a2,2,0,0,1,.1-2.826l.12-.12h-10.17a2,2,0,0,1-2-2v-6A2,2,0,0,1,8161.387,391.409Z" fill="#666"/>
  </g>
</svg>
