<svg xmlns="http://www.w3.org/2000/svg" width="32.762" height="31.374" viewBox="0 0 32.762 31.374">
  <g id="Star_White" data-name="Star White" transform="translate(-9200.631 -192.268)">
    <path id="Path_2953" data-name="Path 2953" d="M9231.953,204.506a1,1,0,0,0-.8-.68L9222,202.492l-4.1-8.289a1,1,0,0,0-1.795,0l-4.1,8.289-9.143,1.329a1,1,0,0,0-.556,1.71l6.623,6.454-1.563,9.113a1,1,0,0,0,1.45,1.055l8.188-4.3,8.184,4.3a1,1,0,0,0,1.449-1.055l-1.56-9.113,6.624-6.454A1,1,0,0,0,9231.953,204.506Z" fill="#fff" stroke="#fff" stroke-miterlimit="10" stroke-width="2.737"/>
  </g>
</svg>
