<?xml version="1.0" encoding="utf-8"?>
<!-- Generator: Adobe Illustrator 24.0.1, SVG Export Plug-In . SVG Version: 6.00 Build 0)  -->
<svg version="1.1" id="Layer_1" xmlns="http://www.w3.org/2000/svg" xmlns:xlink="http://www.w3.org/1999/xlink" x="0px" y="0px"
	 viewBox="0 0 32.1 30.8" style="enable-background:new 0 0 32.1 30.8;" xml:space="preserve">
<style type="text/css">
	.st0{opacity:0.5;}
	.st1{fill:#FFFFFF;}
</style>
<g id="Calendar" transform="translate(-7611.411 -582.224)" class="st0">
	<path id="Path_3163" class="st1" d="M7623.6,607.3c0.5,0,1-0.2,1.2-0.7c0.3-0.6,0.4-1.3,0.4-2v-2.8c0.1-0.7-0.1-1.4-0.4-2.1
		c-0.3-0.4-0.7-0.7-1.2-0.7c-0.5,0-0.9,0.2-1.2,0.6c-0.3,0.6-0.4,1.3-0.4,2v2.8c0,0.7,0.1,1.4,0.4,2.1
		C7622.6,607.1,7623,607.3,7623.6,607.3z"/>
	<path id="Path_3164" class="st1" d="M7636.8,582.2h3.7c1.7,0,3,1.3,3,3c0,0,0,0,0,0v6.7h-32.1v-6.7c0-1.7,1.3-3,3-3c0,0,0,0,0,0
		H7636.8L7636.8,582.2z"/>
	<path id="Path_3165" class="st1" d="M7611.4,610.1c0,1.7,1.3,3,3,3c0,0,0,0,0,0h26.1c1.7,0,3-1.3,3-3c0,0,0,0,0,0v-16.7h-32.1
		L7611.4,610.1z M7629.6,599.1l4.8-1.7h0.2V609h-2.3v-8.8l-2.7,0.8L7629.6,599.1z M7619.6,602.2c-0.1-1.3,0.3-2.6,1-3.7
		c1.5-1.6,4-1.7,5.6-0.2c0.1,0.1,0.1,0.1,0.2,0.2c0.7,1,1.1,2.3,1,3.6v2.1c0.1,1.3-0.3,2.6-1,3.7c-1.5,1.6-4,1.7-5.6,0.2
		c-0.1-0.1-0.1-0.1-0.2-0.2c-0.7-1-1.1-2.3-1-3.6L7619.6,602.2z"/>
</g>
</svg>
