<svg xmlns="http://www.w3.org/2000/svg" width="32.031" height="30.839" viewBox="0 0 32.031 30.839">
  <g id="Calendar" transform="translate(-4252.497 -3525.886)">
    <path id="Path_1053" data-name="Path 1053" d="M4264.619,3550.957a1.29,1.29,0,0,0,1.216-.66,4.357,4.357,0,0,0,.389-2.02v-2.751a4.24,4.24,0,0,0-.393-2.095,1.33,1.33,0,0,0-1.228-.656,1.3,1.3,0,0,0-1.195.624,3.957,3.957,0,0,0-.41,1.952v2.815a4.442,4.442,0,0,0,.386,2.1A1.311,1.311,0,0,0,4264.619,3550.957Z" fill="#fff"/>
    <path id="Path_1054" data-name="Path 1054" d="M4277.835,3525.886h3.7a2.986,2.986,0,0,1,2.992,2.991v6.692H4252.5v-6.692a2.986,2.986,0,0,1,2.991-2.991h22.347Z" fill="#fff"/>
    <path id="Path_1055" data-name="Path 1055" d="M4252.5,3553.734a2.986,2.986,0,0,0,2.991,2.991h26.048a2.987,2.987,0,0,0,2.992-2.991v-16.675H4252.5Zm18.112-10.951,4.79-1.716h.247v11.582h-2.3v-8.85l-2.741.851Zm-9.906,3.074a5.784,5.784,0,0,1,1-3.678,3.976,3.976,0,0,1,5.787-.012,5.674,5.674,0,0,1,1.025,3.571v2.129a5.859,5.859,0,0,1-.993,3.67,3.969,3.969,0,0,1-5.8.024,5.692,5.692,0,0,1-1.024-3.575Z" fill="#fff"/>
  </g>
</svg>
