<?xml version="1.0" encoding="utf-8"?>
<!-- Generator: Adobe Illustrator 24.0.1, SVG Export Plug-In . SVG Version: 6.00 Build 0)  -->
<svg version="1.1" id="Layer_1" xmlns="http://www.w3.org/2000/svg" xmlns:xlink="http://www.w3.org/1999/xlink" x="0px" y="0px"
	 viewBox="0 0 35.4 22.2" style="enable-background:new 0 0 35.4 22.2;" xml:space="preserve">
<style type="text/css">
	.st0{fill:#FFFFFF;}
</style>
<g id="Menu" transform="translate(-7780.301 -587.354)">
	<path id="Path_3169" class="st0" d="M7814.4,597.2h-32.8c-0.7,0-1.3,0.5-1.3,1.3s0.5,1.3,1.3,1.3c0,0,0,0,0.1,0h32.8
		c0.7,0,1.3-0.5,1.3-1.3S7815.2,597.2,7814.4,597.2C7814.4,597.2,7814.4,597.2,7814.4,597.2z"/>
	<path id="Path_3170" class="st0" d="M7781.6,590h32.8c0.7,0,1.3-0.5,1.3-1.3s-0.5-1.3-1.3-1.3c0,0,0,0-0.1,0h-32.8
		c-0.7,0-1.3,0.5-1.3,1.3S7780.8,590,7781.6,590C7781.6,590,7781.6,590,7781.6,590z"/>
	<path id="Path_3171" class="st0" d="M7814.4,607h-32.8c-0.7,0-1.3,0.6-1.3,1.3c0,0.7,0.6,1.3,1.3,1.3h32.8c0.7,0,1.3-0.6,1.3-1.3
		C7815.7,607.6,7815.1,607,7814.4,607L7814.4,607z"/>
</g>
</svg>
