<?xml version="1.0" encoding="utf-8"?>
<!-- Generator: Adobe Illustrator 24.0.1, SVG Export Plug-In . SVG Version: 6.00 Build 0)  -->
<svg version="1.1" id="Layer_1" xmlns="http://www.w3.org/2000/svg" xmlns:xlink="http://www.w3.org/1999/xlink" x="0px" y="0px"
	 viewBox="0 0 37.4 33.4" style="enable-background:new 0 0 37.4 33.4;" xml:space="preserve">
<style type="text/css">
	.st0{opacity:0.5;}
	.st1{fill:#FFFFFF;}
</style>
<g id="Segnala" transform="translate(-7722 -579.964)" class="st0">
	<g id="Group_874">
		<path id="Path_3167" class="st1" d="M7759.1,609.7l-16.4-28.6c-0.6-1.1-2-1.5-3-0.9c-0.4,0.2-0.7,0.5-0.9,0.9l-16.4,28.6
			c-0.4,0.7-0.4,1.7,0,2.4c0.4,0.7,1.2,1.2,2,1.2h32.8c0.8,0,1.6-0.5,2-1.2C7759.5,611.4,7759.5,610.4,7759.1,609.7z M7740.7,589.8
			c0.9-0.1,1.6,0.5,1.7,1.4c0,0,0,0.1,0,0.1c0,3-0.3,7.4-0.3,10.4c0,0.8-0.8,1.1-1.4,1.1c-0.8,0-1.4-0.3-1.4-1.1
			c0-3-0.3-7.4-0.3-10.4c0-0.9,0.7-1.6,1.6-1.6C7740.6,589.8,7740.7,589.8,7740.7,589.8L7740.7,589.8z M7740.7,608.5
			c-1.1,0.1-2-0.8-2.1-1.8c-0.1-1.1,0.8-2,1.8-2.1c1.1-0.1,2,0.8,2.1,1.8c0,0,0,0.1,0,0.1C7742.6,607.6,7741.8,608.5,7740.7,608.5
			L7740.7,608.5z"/>
	</g>
</g>
</svg>
