<?xml version="1.0" encoding="utf-8"?>
<!-- Generator: Adobe Illustrator 24.0.1, SVG Export Plug-In . SVG Version: 6.00 Build 0)  -->
<svg version="1.1" id="Layer_1" xmlns="http://www.w3.org/2000/svg" xmlns:xlink="http://www.w3.org/1999/xlink" x="0px" y="0px"
	 viewBox="0 0 512 512" style="enable-background:new 0 0 512 512;" xml:space="preserve">
<style type="text/css">
	.st0{fill:#FFFFFF;}
</style>
<g>
	<path class="st0" d="M17.4,253.9c-5.6,0.1-10.2,4.7-10.2,10.4v192.1c0,2.9,2.3,5.2,5.2,5.2h49.2c4.6,0,8.7-3.1,10-7.5l45.9-162
		c3-10.5-2.6-21.5-12.9-25.2C85.8,260,57,253.3,17.4,253.9L17.4,253.9z"/>
	<path class="st0" d="M463.3,368.1c-41.5,0-124.4,52.6-165.9,52.6s-88.1-31.8-88.1-31.8s55.9,10.4,88.1,10.4s41.5-11,41.5-26
		c0-36.4-61.6-42-92.8-46.8c-30.6-17.1-46.5-30.6-97.2-34.9c-0.3,3-0.7,5.9-1.6,8.8l-41.7,147.1c47.2,21.5,128.4,55.5,171,55.5
		c62.2,0,228.1-83.1,228.1-103.9C504.8,378.5,484.1,368.1,463.3,368.1z"/>
	<g>
		<g>
			<path class="st0" d="M263.9,185.3l24.5,14.5l-31.9-63.3l-71.3,2.1l23,13.7l-31.3,58.1c0,0,25.2,45.7,42.3,72.9
				c7,11.1,16.4,17.5,25.4,17.5h91.6v-66.2l-99.5,0L263.9,185.3z"/>
			<path class="st0" d="M348.2,110.6l69.4,4.2l33.3-63.2l-23.2,13.3l-35-55.9c0,0-52.1-0.6-84.2,1c-13.1,0.6-23.3,5.7-27.7,13.5
				l-45.1,79.9l57.5,32.6l49-86.7l29.4,48L348.2,110.6z"/>
			<path class="st0" d="M497.4,191.3l-43.6-80.7L395.8,142l47.3,87.7l-56.2-0.5l0.8-25.5l-40.2,55.2l35.8,61.8l1.1-26.8l65.9,0
				c0,0,28.1-43.9,43.9-72C500.6,210.5,501.7,199.2,497.4,191.3z"/>
		</g>
	</g>
</g>
</svg>
