<svg xmlns="http://www.w3.org/2000/svg" width="37.426" height="33.385" viewBox="0 0 37.426 33.385">
  <g id="Segnala" transform="translate(-1153.201 -5560.162)">
    <path id="Path_425" data-name="Path 425" d="M1190.3,5589.9l-16.42-28.573a2.239,2.239,0,0,0-3.927,0l-16.42,28.573a2.509,2.509,0,0,0-.033,2.426,2.277,2.277,0,0,0,2,1.223h32.841a2.277,2.277,0,0,0,2-1.223A2.509,2.509,0,0,0,1190.3,5589.9Zm-18.371-19.853a1.58,1.58,0,0,1,1.741,1.548c0,3.019-.339,7.358-.339,10.377,0,.786-.822,1.116-1.4,1.116-.774,0-1.427-.33-1.427-1.116,0-3.019-.338-7.358-.338-10.377A1.575,1.575,0,0,1,1171.926,5570.045Zm.024,18.7a1.957,1.957,0,1,1,1.838-1.954A1.94,1.94,0,0,1,1171.95,5588.744Z" fill="#fff"/>
  </g>
</svg>
