<?xml version="1.0" encoding="utf-8"?>
<!-- Generator: Adobe Illustrator 24.0.1, SVG Export Plug-In . SVG Version: 6.00 Build 0)  -->
<svg version="1.1" id="Layer_1" xmlns="http://www.w3.org/2000/svg" xmlns:xlink="http://www.w3.org/1999/xlink" x="0px" y="0px"
	 viewBox="0 0 31.4 33.5" style="enable-background:new 0 0 31.4 33.5;" xml:space="preserve">
<style type="text/css">
	.st0{opacity:0.5;}
	.st1{fill:#FFFFFF;}
</style>
<g id="Rifiuti" transform="translate(-7553.254 -579.459)" class="st0">
	<path id="Path_3168" class="st1" d="M7583.1,584.1h-7.8l-1.3-2.6c-0.6-1.2-1.9-2-3.3-2h-3.7c-1.4,0-2.6,0.8-3.3,2l-1.3,2.6h-7.8
		c-0.8,0-1.4,0.6-1.4,1.4c0,0.8,0.6,1.4,1.4,1.4c0,0,0,0,0,0h1.8l2.9,23c0.2,1.7,1.7,3,3.4,3h12.3c1.7,0,3.2-1.3,3.4-3l2.9-23h1.8
		c0.8,0,1.4-0.6,1.4-1.4C7584.6,584.7,7583.9,584.1,7583.1,584.1z M7568.6,603.2l-3,1.2c-0.2,0.1-0.3,0-0.4-0.2c0-0.1,0-0.2,0-0.2
		l0.2-0.7c-2-0.7-3.2-2.9-2.6-5c0.1-0.5,0.4-1,0.7-1.4c0.1-0.1,0.3-0.2,0.5-0.1c0.1,0.1,0.2,0.2,0.1,0.3l0,0c-0.4,1.6,0.4,3.3,2,3.8
		l0.2-0.8c0.1-0.2,0.2-0.3,0.4-0.2c0.1,0,0.1,0.1,0.2,0.1l2,2.5C7568.9,602.9,7568.9,603.1,7568.6,603.2
		C7568.7,603.2,7568.6,603.2,7568.6,603.2z M7568.7,596.7l-3.2,0.4c-0.2,0-0.3-0.1-0.4-0.2c0,0,0-0.1,0-0.1l0.4-3.2
		c0-0.2,0.2-0.3,0.4-0.3c0.1,0,0.1,0,0.2,0.1l0.5,0.5c1.6-1.4,4.1-1.3,5.7,0.2c0.4,0.4,0.7,0.8,0.9,1.3c0.1,0.2,0,0.4-0.2,0.4
		c-0.1,0-0.3,0-0.3-0.1l0,0c-1.2-1.2-3.1-1.3-4.3-0.2l0.6,0.6c0.1,0.1,0.1,0.3,0,0.4C7568.9,596.7,7568.8,596.7,7568.7,596.7z
		 M7574.9,599.6l-0.7,0.2c0.4,2.1-0.9,4.2-3,4.8c-0.5,0.1-1.1,0.2-1.6,0.1c-0.2,0-0.3-0.2-0.3-0.4c0-0.1,0.1-0.2,0.2-0.3l0,0
		c1.6-0.4,2.6-2,2.4-3.6l-0.8,0.2c-0.2,0-0.4-0.1-0.4-0.2c0-0.1,0-0.1,0-0.2l1.2-3c0.1-0.2,0.3-0.2,0.5-0.2c0,0,0,0,0,0l2.5,2
		c0.1,0.1,0.2,0.3,0.1,0.5C7575,599.5,7575,599.5,7574.9,599.6z M7566.4,582.7c0.1-0.3,0.4-0.4,0.7-0.4h3.7c0.3,0,0.5,0.2,0.7,0.4
		l0.7,1.3h-6.4L7566.4,582.7z"/>
</g>
</svg>
