<svg xmlns="http://www.w3.org/2000/svg" width="31.327" height="33.515" viewBox="0 0 31.327 33.515">
  <g id="Bin" transform="translate(-1180.857 -3521.511)">
    <path id="Path_1366" data-name="Path 1366" d="M1210.667,3526.133h-7.8l-1.306-2.611a3.6,3.6,0,0,0-3.245-2.011h-3.7a3.645,3.645,0,0,0-3.245,2.011l-1.306,2.611H1182.3a1.452,1.452,0,0,0-1.446,1.446,1.43,1.43,0,0,0,1.446,1.446h1.8l2.858,23a3.406,3.406,0,0,0,3.422,3h12.242a3.49,3.49,0,0,0,3.422-3l2.892-23h1.8a1.452,1.452,0,0,0,1.446-1.446A1.492,1.492,0,0,0,1210.667,3526.133Zm-14.464,19.156-2.963,1.2a.314.314,0,0,1-.424-.388l.212-.741a4.154,4.154,0,0,1-2.646-4.974,4.238,4.238,0,0,1,.706-1.446.321.321,0,0,1,.564.282h0a3.233,3.233,0,0,0,1.976,3.845l.211-.776a.322.322,0,0,1,.565-.106l1.975,2.54A.393.393,0,0,1,1196.2,3545.289Zm.106-6.492-3.175.424a.3.3,0,0,1-.353-.353l.423-3.175a.316.316,0,0,1,.529-.176l.53.529a4.144,4.144,0,0,1,5.644.211,3.877,3.877,0,0,1,.882,1.306.325.325,0,0,1-.529.353h0a3.207,3.207,0,0,0-4.339-.212l.564.564A.316.316,0,0,1,1196.309,3538.8Zm6.173,2.823-.705.176a4.136,4.136,0,0,1-3,4.763,4.045,4.045,0,0,1-1.587.106.323.323,0,0,1-.036-.635h0a3.237,3.237,0,0,0,2.364-3.634l-.776.212a.329.329,0,0,1-.388-.424l1.2-2.963a.349.349,0,0,1,.494-.141l2.54,1.975A.322.322,0,0,1,1202.482,3541.62Zm-8.537-16.828a.79.79,0,0,1,.67-.423h3.7a.748.748,0,0,1,.67.423l.67,1.341h-6.385Z" fill="#fff"/>
  </g>
</svg>
