<?xml version="1.0" encoding="utf-8"?>
<!-- Generator: Adobe Illustrator 24.0.1, SVG Export Plug-In . SVG Version: 6.00 Build 0)  -->
<svg version="1.1" id="Layer_1" xmlns="http://www.w3.org/2000/svg" xmlns:xlink="http://www.w3.org/1999/xlink" x="0px" y="0px"
	 viewBox="0 0 33.6 33.6" style="enable-background:new 0 0 33.6 33.6;" xml:space="preserve">
<style type="text/css">
	.st0{opacity:0.5;fill:#FFFFFF;enable-background:new    ;}
</style>
<path id="Ritiro" class="st0" d="M0,16.8C0,7.5,7.5,0,16.8,0c9.3,0,16.8,7.5,16.8,16.8c0,8.9-7,16.3-15.9,16.8v-3.7
	c0-0.1,0-0.3-0.1-0.4l-1-2.2c-0.2-0.4-0.7-0.6-1.1-0.4c-0.4,0.2-0.6,0.7-0.4,1.1l0.9,2v3.6C7.1,33.2,0,25.8,0,16.8 M17.7,6.2
	c-0.2-0.4-0.7-0.6-1.1-0.4c-0.4,0.2-0.6,0.7-0.4,1.1l1,2.2c0.2,0.4,0.7,0.6,1.1,0.4c0.4-0.2,0.6-0.7,0.4-1.1l0,0L17.7,6.2z
	 M19.9,11.5c-0.2-0.4-0.7-0.6-1.1-0.4c-0.4,0.2-0.6,0.7-0.4,1.1l0,0l1,2.2c0.2,0.4,0.7,0.6,1.1,0.4c0.4-0.2,0.6-0.7,0.4-1.1
	L19.9,11.5z M14.9,11.5c-0.2-0.4-0.7-0.6-1.1-0.4c-0.4,0.2-0.6,0.7-0.4,1.1l1,2.2c0.2,0.4,0.7,0.6,1.1,0.4c0.4-0.2,0.6-0.7,0.4-1.1
	L14.9,11.5z M22.2,16.8c-0.2-0.4-0.7-0.6-1.1-0.4c-0.4,0.2-0.6,0.7-0.4,1.1l0,0l1,2.2c0.2,0.4,0.7,0.6,1.1,0.4
	c0.4-0.2,0.6-0.7,0.4-1.1l0,0L22.2,16.8z M17.2,16.8c-0.2-0.4-0.7-0.6-1.1-0.4c-0.4,0.2-0.6,0.7-0.4,1.1l0,0l1,2.2
	c0.2,0.4,0.7,0.6,1.1,0.4c0.4-0.2,0.6-0.7,0.4-1.1L17.2,16.8z M12.1,16.8c-0.2-0.4-0.7-0.6-1.1-0.4c-0.4,0.2-0.6,0.7-0.4,1.1l0,0
	l1,2.2c0.2,0.4,0.7,0.6,1.1,0.4c0.4-0.2,0.6-0.7,0.4-1.1l0,0L12.1,16.8z M24.4,22.1c-0.2-0.4-0.7-0.6-1.1-0.4
	c-0.4,0.2-0.6,0.7-0.4,1.1l1,2.2c0.2,0.4,0.7,0.6,1.1,0.4c0.4-0.2,0.6-0.7,0.4-1.1l0,0L24.4,22.1z M19.4,22.1
	c-0.2-0.4-0.7-0.6-1.1-0.4c-0.4,0.2-0.6,0.7-0.4,1.1l1,2.2c0.2,0.4,0.7,0.6,1.1,0.4c0.4-0.2,0.6-0.7,0.4-1.1L19.4,22.1z M14.4,22.1
	c-0.2-0.4-0.7-0.6-1.1-0.4c-0.4,0.2-0.6,0.7-0.4,1.1l0,0l1,2.2c0.2,0.4,0.7,0.6,1.1,0.4c0.4-0.2,0.6-0.7,0.4-1.1L14.4,22.1z
	 M9.4,22.1c-0.2-0.4-0.7-0.6-1.1-0.4c-0.4,0.2-0.6,0.7-0.4,1.1l0,0l1,2.2c0.2,0.4,0.7,0.6,1.1,0.4c0.4-0.2,0.6-0.7,0.4-1.1L9.4,22.1
	z"/>
</svg>
