<svg xmlns="http://www.w3.org/2000/svg" width="33.579" height="33.561" viewBox="0 0 33.579 33.561">
  <path id="Ritiro" d="M565.535,4544.245a16.79,16.79,0,1,1,17.726,16.764v-3.7a.849.849,0,0,0-.073-.383l-.981-2.2a.856.856,0,0,0-1.563.7l.905,2.034v3.569a16.791,16.791,0,0,1-16.014-16.772m17.64-10.582a.856.856,0,0,0-1.564.7l.98,2.2a.856.856,0,0,0,1.564-.7Zm2.255,5.3a.856.856,0,0,0-1.564.7l.981,2.2a.855.855,0,0,0,1.563-.7Zm-5.016,0a.856.856,0,0,0-1.564.7l.981,2.2a.855.855,0,0,0,1.563-.7Zm7.292,5.269a.855.855,0,0,0-1.563.695l.98,2.2a.856.856,0,0,0,1.564-.7Zm-5.04,0a.856.856,0,0,0-1.564.695l.98,2.2a.856.856,0,0,0,1.564-.7Zm-5.016,0a.856.856,0,0,0-1.564.695l.98,2.2a.856.856,0,0,0,1.564-.7Zm12.29,5.3a.856.856,0,0,0-1.564.7l.98,2.2a.856.856,0,0,0,1.564-.7Zm-5.041,0a.856.856,0,0,0-1.564.7l.981,2.2a.856.856,0,0,0,1.564-.7Zm-5.016,0a.856.856,0,0,0-1.564.7l.981,2.2a.856.856,0,0,0,1.564-.7Zm-5,0a.856.856,0,0,0-1.564.7l.981,2.2a.856.856,0,0,0,1.564-.7Z" transform="translate(-565.535 -4527.456)" fill="#fff"/>
</svg>
